<svg width="50" height="50" viewBox="0 0 50 50" xmlns="http://www.w3.org/2000/svg">
    <!-- Petals -->
    <g class="petals">
        <path d="M25 25 L25 5 Q30 0 35 5 L25 25" fill="#FFC107" transform="rotate(0 25 25)"/>
        <path d="M25 25 L25 5 Q30 0 35 5 L25 25" fill="#FFC107" transform="rotate(30 25 25)"/>
        <path d="M25 25 L25 5 Q30 0 35 5 L25 25" fill="#FFC107" transform="rotate(60 25 25)"/>
        <path d="M25 25 L25 5 Q30 0 35 5 L25 25" fill="#FFC107" transform="rotate(90 25 25)"/>
        <path d="M25 25 L25 5 Q30 0 35 5 L25 25" fill="#FFC107" transform="rotate(120 25 25)"/>
        <path d="M25 25 L25 5 Q30 0 35 5 L25 25" fill="#FFC107" transform="rotate(150 25 25)"/>
        <path d="M25 25 L25 5 Q30 0 35 5 L25 25" fill="#FFC107" transform="rotate(180 25 25)"/>
        <path d="M25 25 L25 5 Q30 0 35 5 L25 25" fill="#FFC107" transform="rotate(210 25 25)"/>
        <path d="M25 25 L25 5 Q30 0 35 5 L25 25" fill="#FFC107" transform="rotate(240 25 25)"/>
        <path d="M25 25 L25 5 Q30 0 35 5 L25 25" fill="#FFC107" transform="rotate(270 25 25)"/>
        <path d="M25 25 L25 5 Q30 0 35 5 L25 25" fill="#FFC107" transform="rotate(300 25 25)"/>
        <path d="M25 25 L25 5 Q30 0 35 5 L25 25" fill="#FFC107" transform="rotate(330 25 25)"/>
    </g>
    <!-- Center -->
    <circle cx="25" cy="25" r="8" fill="#8A2BE2"/>
    <circle cx="25" cy="25" r="6" fill="#6A0DAD"/>
</svg> 